<mxfile host="app.diagrams.net" modified="2023-04-23T13:01:01.711Z" agent="5.0 (Macintosh; Intel Mac OS X 10_15_7) AppleWebKit/537.36 (KHTML, like Gecko) Chrome/111.0.0.0 Safari/537.36 OPR/97.0.0.0" etag="OMQCMgJG8eWRXe1xbmHR" version="20.5.1" type="github">
  <diagram id="DIMNTePr0naYvx8ozY1G" name="Page-1">
    <mxGraphModel dx="1143" dy="748" grid="1" gridSize="10" guides="1" tooltips="1" connect="1" arrows="1" fold="1" page="1" pageScale="1" pageWidth="827" pageHeight="1169" math="0" shadow="0">
      <root>
        <mxCell id="0" />
        <mxCell id="1" parent="0" />
        <mxCell id="GHaCWjiuwWaTfRDNjW37-1" value="Fahrzeug" style="whiteSpace=wrap;html=1;align=center;" vertex="1" parent="1">
          <mxGeometry x="314" y="120" width="100" height="40" as="geometry" />
        </mxCell>
        <mxCell id="GHaCWjiuwWaTfRDNjW37-2" value="Hersteller" style="ellipse;whiteSpace=wrap;html=1;align=center;" vertex="1" parent="1">
          <mxGeometry x="314" y="60" width="100" height="40" as="geometry" />
        </mxCell>
        <mxCell id="GHaCWjiuwWaTfRDNjW37-3" value="PS" style="ellipse;whiteSpace=wrap;html=1;align=center;" vertex="1" parent="1">
          <mxGeometry x="424" y="60" width="100" height="40" as="geometry" />
        </mxCell>
        <mxCell id="GHaCWjiuwWaTfRDNjW37-7" value="" style="endArrow=none;html=1;rounded=0;entryX=0.5;entryY=1;entryDx=0;entryDy=0;exitX=0.25;exitY=0;exitDx=0;exitDy=0;" edge="1" parent="1" source="GHaCWjiuwWaTfRDNjW37-1">
          <mxGeometry width="50" height="50" relative="1" as="geometry">
            <mxPoint x="250" y="250" as="sourcePoint" />
            <mxPoint x="254" y="100" as="targetPoint" />
          </mxGeometry>
        </mxCell>
        <mxCell id="GHaCWjiuwWaTfRDNjW37-8" value="" style="endArrow=none;html=1;rounded=0;entryX=0.5;entryY=1;entryDx=0;entryDy=0;exitX=0.5;exitY=0;exitDx=0;exitDy=0;" edge="1" parent="1" source="GHaCWjiuwWaTfRDNjW37-1" target="GHaCWjiuwWaTfRDNjW37-2">
          <mxGeometry width="50" height="50" relative="1" as="geometry">
            <mxPoint x="349" y="130" as="sourcePoint" />
            <mxPoint x="264" y="110" as="targetPoint" />
          </mxGeometry>
        </mxCell>
        <mxCell id="GHaCWjiuwWaTfRDNjW37-9" value="" style="endArrow=none;html=1;rounded=0;entryX=0.5;entryY=1;entryDx=0;entryDy=0;exitX=0.75;exitY=0;exitDx=0;exitDy=0;" edge="1" parent="1" source="GHaCWjiuwWaTfRDNjW37-1" target="GHaCWjiuwWaTfRDNjW37-3">
          <mxGeometry width="50" height="50" relative="1" as="geometry">
            <mxPoint x="374" y="130" as="sourcePoint" />
            <mxPoint x="374" y="110" as="targetPoint" />
          </mxGeometry>
        </mxCell>
        <mxCell id="GHaCWjiuwWaTfRDNjW37-10" value="Fahrgestellnr" style="ellipse;whiteSpace=wrap;html=1;align=center;fontStyle=4;" vertex="1" parent="1">
          <mxGeometry x="200" y="60" width="100" height="40" as="geometry" />
        </mxCell>
        <mxCell id="GHaCWjiuwWaTfRDNjW37-11" value="PKW" style="whiteSpace=wrap;html=1;align=center;" vertex="1" parent="1">
          <mxGeometry x="250" y="200" width="100" height="40" as="geometry" />
        </mxCell>
        <mxCell id="GHaCWjiuwWaTfRDNjW37-12" value="Motorrad" style="whiteSpace=wrap;html=1;align=center;" vertex="1" parent="1">
          <mxGeometry x="380" y="200" width="100" height="40" as="geometry" />
        </mxCell>
        <mxCell id="GHaCWjiuwWaTfRDNjW37-13" value="is a" style="endArrow=block;html=1;rounded=0;endFill=0;entryX=0.25;entryY=1;entryDx=0;entryDy=0;exitX=0.5;exitY=0;exitDx=0;exitDy=0;" edge="1" parent="1" source="GHaCWjiuwWaTfRDNjW37-11" target="GHaCWjiuwWaTfRDNjW37-1">
          <mxGeometry width="50" height="50" relative="1" as="geometry">
            <mxPoint x="390" y="410" as="sourcePoint" />
            <mxPoint x="440" y="360" as="targetPoint" />
          </mxGeometry>
        </mxCell>
        <mxCell id="GHaCWjiuwWaTfRDNjW37-15" value="is a" style="endArrow=block;html=1;rounded=0;endFill=0;entryX=0.75;entryY=1;entryDx=0;entryDy=0;exitX=0.5;exitY=0;exitDx=0;exitDy=0;" edge="1" parent="1" source="GHaCWjiuwWaTfRDNjW37-12" target="GHaCWjiuwWaTfRDNjW37-1">
          <mxGeometry width="50" height="50" relative="1" as="geometry">
            <mxPoint x="310" y="210" as="sourcePoint" />
            <mxPoint x="349" y="170" as="targetPoint" />
          </mxGeometry>
        </mxCell>
        <mxCell id="GHaCWjiuwWaTfRDNjW37-17" value="AnzTÃ¼ren" style="ellipse;whiteSpace=wrap;html=1;align=center;" vertex="1" parent="1">
          <mxGeometry x="130" y="180" width="100" height="40" as="geometry" />
        </mxCell>
        <mxCell id="GHaCWjiuwWaTfRDNjW37-18" value="istChopper" style="ellipse;whiteSpace=wrap;html=1;align=center;" vertex="1" parent="1">
          <mxGeometry x="500" y="180" width="100" height="40" as="geometry" />
        </mxCell>
        <mxCell id="GHaCWjiuwWaTfRDNjW37-19" value="" style="endArrow=none;html=1;rounded=0;entryX=0;entryY=0.5;entryDx=0;entryDy=0;exitX=1;exitY=0.25;exitDx=0;exitDy=0;" edge="1" parent="1" source="GHaCWjiuwWaTfRDNjW37-12" target="GHaCWjiuwWaTfRDNjW37-18">
          <mxGeometry width="50" height="50" relative="1" as="geometry">
            <mxPoint x="399" y="130" as="sourcePoint" />
            <mxPoint x="484" y="110" as="targetPoint" />
          </mxGeometry>
        </mxCell>
        <mxCell id="GHaCWjiuwWaTfRDNjW37-20" value="" style="endArrow=none;html=1;rounded=0;entryX=0;entryY=0.25;entryDx=0;entryDy=0;exitX=1;exitY=0.5;exitDx=0;exitDy=0;" edge="1" parent="1" source="GHaCWjiuwWaTfRDNjW37-17" target="GHaCWjiuwWaTfRDNjW37-11">
          <mxGeometry width="50" height="50" relative="1" as="geometry">
            <mxPoint x="490" y="220" as="sourcePoint" />
            <mxPoint x="510" y="210" as="targetPoint" />
          </mxGeometry>
        </mxCell>
      </root>
    </mxGraphModel>
  </diagram>
</mxfile>
